<?xml version="1.0" standalone="no"?>
<!DOCTYPE svg PUBLIC "-//W3C//DTD SVG 20010904//EN"
 "http://www.w3.org/TR/2001/REC-SVG-20010904/DTD/svg10.dtd">
<svg version="1.0" xmlns="http://www.w3.org/2000/svg"
 width="700.000000pt" height="700.000000pt" viewBox="0 0 700.000000 700.000000"
 preserveAspectRatio="xMidYMid meet">
<metadata>
Created by potrace 1.14, written by Peter Selinger 2001-2017
</metadata>
<g transform="translate(0.000000,700.000000) scale(0.100000,-0.100000)"
fill="#000000" stroke="none">
<path d="M3068 6631 c-335 -201 -835 -503 -1114 -670 -287 -172 -524 -321
-549 -345 -64 -61 -121 -158 -157 -265 l-32 -96 0 -1540 c0 -847 3 -1556 7
-1577 37 -203 213 -386 421 -437 69 -17 4637 -17 4717 0 99 21 177 67 265 154
87 87 133 166 155 266 10 41 13 423 13 1564 0 831 -3 1531 -7 1557 -22 171
-101 315 -222 406 -42 32 -190 122 -200 122 -8 0 -415 -413 -415 -420 0 -5 6
-10 13 -12 27 -7 217 -124 214 -132 -3 -7 -273 -187 -567 -376 -52 -34 -207
-135 -345 -225 -256 -167 -513 -335 -989 -644 l-269 -175 -34 20 c-64 36 -908
588 -911 596 -2 4 -8 8 -12 8 -5 0 -141 86 -302 191 -161 106 -351 230 -423
276 -71 47 -215 140 -318 208 l-189 122 189 116 c457 280 485 297 758 463 99
61 418 256 709 434 l530 324 60 -17 61 -16 39 42 c21 23 52 58 69 77 29 33
196 219 207 230 3 3 20 22 39 42 l34 37 -63 30 -64 31 -355 -1 -356 -2 -607
-366z m847 -3382 c61 -22 153 -17 204 9 28 15 1801 1189 2074 1374 l57 39 0
-1219 0 -1219 -2245 0 -2245 0 0 1218 0 1219 1053 -702 c651 -434 1071 -709
1102 -719z"/>
<path d="M5539 6670 c-48 -17 -105 -71 -816 -781 l-764 -764 -177 180 c-190
194 -215 215 -277 235 -209 69 -413 -157 -320 -353 9 -19 154 -171 323 -339
277 -275 312 -306 357 -320 72 -23 146 -16 211 18 42 23 243 217 912 884 847
844 858 856 876 913 40 128 -13 251 -135 313 -62 31 -125 36 -190 14z"/>
<path d="M448 5289 c-102 -16 -192 -94 -222 -192 -20 -68 -21 -3875 0 -3963
42 -182 194 -353 368 -414 31 -11 73 -23 93 -26 52 -9 3976 -11 4035 -2 158
23 265 174 233 328 -6 30 -18 69 -27 85 -23 43 -87 101 -133 122 -38 17 -142
18 -2030 23 l-1989 5 -1 1905 c-1 1048 -5 1919 -10 1935 -20 73 -98 153 -174
180 -55 19 -89 22 -143 14z"/>
</g>
</svg>
